<svg xmlns="http://www.w3.org/2000/svg" width="24.007" height="24.01" viewBox="0 0 24.007 24.01">
  <path id="home" d="M23.362,10.442l0,0L13.566.647a2.21,2.21,0,0,0-3.126,0L.652,10.436l-.01.01a2.209,2.209,0,0,0,1.471,3.766q.034,0,.068,0h.39v7.207a2.59,2.59,0,0,0,2.587,2.587H8.99a.7.7,0,0,0,.7-.7V17.655a1.181,1.181,0,0,1,1.18-1.18h2.26a1.181,1.181,0,0,1,1.18,1.18v5.651a.7.7,0,0,0,.7.7h3.832a2.59,2.59,0,0,0,2.587-2.587V14.215H21.8a2.211,2.211,0,0,0,1.564-3.772Zm0,0" transform="translate(0 0.001)" fill="#b8b8b8"/>
</svg>
