<svg xmlns="http://www.w3.org/2000/svg" width="24.195" height="29" viewBox="0 0 24.195 29">
  <g id="user" transform="translate(0 0)">
    <path id="Path_3" data-name="Path 3" d="M94.017,13.969a6.758,6.758,0,0,0,4.939-2.046A6.758,6.758,0,0,0,101,6.985a6.759,6.759,0,0,0-2.046-4.939,6.983,6.983,0,0,0-9.877,0,6.759,6.759,0,0,0-2.046,4.938,6.758,6.758,0,0,0,2.047,4.939A6.76,6.76,0,0,0,94.017,13.969Zm0,0" transform="translate(-82.102)" fill="#b8b8b8"/>
    <path id="Path_4" data-name="Path 4" d="M24.136,255.608a17.251,17.251,0,0,0-.235-1.832,14.436,14.436,0,0,0-.451-1.842,9.1,9.1,0,0,0-.757-1.718,6.485,6.485,0,0,0-1.142-1.488A5.035,5.035,0,0,0,19.91,247.7a5.67,5.67,0,0,0-2.094-.379,2.126,2.126,0,0,0-1.135.481c-.34.222-.738.479-1.183.762a6.777,6.777,0,0,1-1.53.674,5.942,5.942,0,0,1-3.743,0,6.763,6.763,0,0,1-1.529-.674c-.44-.281-.838-.538-1.184-.763a2.123,2.123,0,0,0-1.135-.481,5.662,5.662,0,0,0-2.094.379,5.032,5.032,0,0,0-1.641,1.031A6.484,6.484,0,0,0,1.5,250.215a9.117,9.117,0,0,0-.757,1.718,14.472,14.472,0,0,0-.45,1.842,17.19,17.19,0,0,0-.235,1.833c-.038.555-.058,1.131-.058,1.712a4.815,4.815,0,0,0,1.43,3.643,5.148,5.148,0,0,0,3.685,1.344H19.079a5.147,5.147,0,0,0,3.685-1.344,4.813,4.813,0,0,0,1.43-3.643c0-.584-.02-1.161-.059-1.713Zm0,0" transform="translate(0 -233.308)" fill="#b8b8b8"/>
  </g>
</svg>
